HIERARCHY
ROOT Hips
{
	OFFSET 0.000000 0.000000 0.000000
	CHANNELS 6 Xposition Yposition Zposition Zrotation Yrotation Xrotation 
	JOINT LeftUpLeg_virtual
	{
		OFFSET 0.000000 0.000000 0.000000
		CHANNELS 3 Zrotation Yrotation Xrotation
		JOINT LeftUpLeg
		{
			OFFSET 8.479694 -4.795517 -0.379053
			CHANNELS 3 Zrotation Yrotation Xrotation
			JOINT LeftLeg
			{
				OFFSET 0.485052 -32.551468 0.112863
				CHANNELS 3 Zrotation Yrotation Xrotation
				JOINT LeftFoot
				{
					OFFSET 0.438033 -32.635670 -3.012641
					CHANNELS 3 Zrotation Yrotation Xrotation
					JOINT LeftToeBase
					{
						OFFSET 0.970169 -13.225353 11.864223
						CHANNELS 3 Zrotation Yrotation Xrotation
						End Site
						{
							OFFSET 0.000000 0.000000 0.000000
						}
					}
				}
			}
		}
	}
	JOINT RightUpLeg_virtual
	{
		OFFSET 0.000000 0.000000 0.000000
		CHANNELS 3 Zrotation Yrotation Xrotation
		JOINT RightUpLeg
		{
			OFFSET -8.479694 -4.795517 -0.379053
			CHANNELS 3 Zrotation Yrotation Xrotation
			JOINT RightLeg
			{
				OFFSET -0.484100 -32.551483 0.112903
				CHANNELS 3 Zrotation Yrotation Xrotation
				JOINT RightFoot
				{
					OFFSET -0.438985 -32.635651 -3.012681
					CHANNELS 3 Zrotation Yrotation Xrotation
					JOINT RightToeBase
					{
						OFFSET -0.970169 -13.225354 11.864223
						CHANNELS 3 Zrotation Yrotation Xrotation
						End Site
						{
							OFFSET 0.000000 0.000000 0.000000
						}
					}
				}
			}
		}
	}
	JOINT Spine_virtual
	{
		OFFSET 0.000000 0.000000 0.000000
		CHANNELS 3 Zrotation Yrotation Xrotation
		JOINT Spine
		{
			OFFSET 0.000000 7.722015 1.166203
			CHANNELS 3 Zrotation Yrotation Xrotation
			JOINT Spine1
			{
				OFFSET 0.000000 12.024086 0.248766
				CHANNELS 3 Zrotation Yrotation Xrotation
				JOINT Spine2
				{
					OFFSET -0.000000 11.503036 -0.491240
					CHANNELS 3 Zrotation Yrotation Xrotation
					JOINT Neck_virtual
					{
						OFFSET 0.000000 0.000000 0.000000
						CHANNELS 3 Zrotation Yrotation Xrotation
						JOINT Neck
						{
							OFFSET 0.000000 18.430687 -3.123054
							CHANNELS 3 Zrotation Yrotation Xrotation
							JOINT Head
							{
								OFFSET -0.000000 9.051071 1.034021
								CHANNELS 3 Zrotation Yrotation Xrotation
								End Site
								{
									OFFSET 0.000000 0.000000 0.000000
								}
							}
						}
					}
					JOINT LeftShoulder_virtual
					{
						OFFSET 0.000000 0.000000 0.000000
						CHANNELS 3 Zrotation Yrotation Xrotation
						JOINT LeftShoulder
						{
							OFFSET 6.197824 13.665230 -4.064723
							CHANNELS 3 Zrotation Yrotation Xrotation
							JOINT LeftArm
							{
								OFFSET 7.778132 -0.187073 -1.709282
								CHANNELS 3 Zrotation Yrotation Xrotation
								JOINT LeftForeArm
								{
									OFFSET 21.954697 0.000000 -2.041093
									CHANNELS 3 Zrotation Yrotation Xrotation
									JOINT LeftHand
									{
										OFFSET 22.992908 0.000000 -0.870901
										CHANNELS 3 Zrotation Yrotation Xrotation
										End Site
										{
											OFFSET 0.000000 0.000000 0.000000
										}
									}
								}
							}
						}
					}
					JOINT RightShoulder_virtual
					{
						OFFSET 0.000000 0.000000 0.000000
						CHANNELS 3 Zrotation Yrotation Xrotation
						JOINT RightShoulder
						{
							OFFSET -6.197824 13.665230 -4.064723
							CHANNELS 3 Zrotation Yrotation Xrotation
							JOINT RightArm
							{
								OFFSET -7.778132 -0.187073 -1.709282
								CHANNELS 3 Zrotation Yrotation Xrotation
								JOINT RightForeArm
								{
									OFFSET -21.954697 0.000000 -2.041093
									CHANNELS 3 Zrotation Yrotation Xrotation
									JOINT RightHand
									{
										OFFSET -22.992908 0.000000 -0.870901
										CHANNELS 3 Zrotation Yrotation Xrotation
										End Site
										{
											OFFSET 0.000000 0.000000 0.000000
										}
									}
								}
							}
						}
					}
				}
			}
		}
	}
}
MOTION
Frames: 14
Frame Time: 0.033333
-8.968830 81.297089 36.647469 -179.912251 3.451483 -179.567121 -3.731768 -1.709099 11.548679 5.962179 1.556537 -25.512599 4.148988 2.436746 31.833589 -6.879383 -7.826359 -8.228800 0.000000 0.000000 0.000000 0.010413 -1.866864 11.969742 -1.535405 -9.806568 -24.793465 -0.062582 4.289397 29.579364 10.024985 10.499519 -5.212287 0.000000 0.000000 0.000000 1.187485 0.312153 0.180653 2.019658 -0.539433 0.977382 0.652827 -2.834790 10.074777 0.013042 0.000522 0.082010 0.539510 -2.016781 10.457692 1.335537 -0.518325 -16.537181 0.000000 0.000000 0.000000 1.840919 -1.653712 7.673935 -4.573599 -0.274190 6.323405 -64.139008 -2.672488 30.387740 -27.169794 -87.590756 57.339629 0.000000 0.000000 0.000000 -2.177560 0.479944 6.912096 30.559766 10.259100 12.430639 40.535923 -6.274805 14.977439 -37.825772 81.657691 -42.074560 0.000000 0.000000 0.000000 
-10.769034 81.149689 36.875298 -179.927209 3.582564 -179.513258 -3.906618 -1.657623 11.552843 4.761012 1.555688 -25.270498 4.202067 2.014309 31.518331 -7.038040 -8.457724 -10.378060 0.000000 0.000000 0.000000 -0.166406 -1.834175 11.950771 -2.659264 -9.676264 -25.307179 -0.190741 4.911226 29.639572 11.305197 10.685466 -4.408624 0.000000 0.000000 0.000000 1.189704 0.442263 0.206373 1.842671 -0.621929 0.851023 0.509412 -2.843691 9.933848 -0.019484 0.028969 0.112180 0.451882 -1.999543 10.411642 1.107866 -0.350337 -16.874476 0.000000 0.000000 0.000000 1.740936 -1.662812 7.667565 -4.757464 0.209994 6.070163 -64.357136 -1.865504 29.839631 -31.728838 -88.220397 62.331343 0.000000 0.000000 0.000000 -2.254214 0.511443 6.930940 30.836303 10.213136 12.626258 39.681709 -6.956334 15.243229 -34.233342 80.673693 -37.776605 0.000000 0.000000 0.000000 
-12.658878 81.002869 37.267063 -179.816915 3.914644 -179.425641 -3.899136 -1.661008 11.611771 3.542905 1.271621 -25.133107 4.359166 1.895713 31.027494 -7.227292 -9.023347 -12.365129 0.000000 0.000000 0.000000 -0.261389 -1.813929 11.969395 -3.760519 -9.721856 -25.918929 -0.388668 5.849974 29.369663 12.771698 10.944143 -3.117111 0.000000 0.000000 0.000000 1.322460 0.648691 0.381835 1.748065 -0.587828 0.747489 0.393707 -2.823411 9.811613 -0.038345 0.015842 0.099454 0.267060 -2.043478 10.340408 0.842720 -0.179653 -17.345062 0.000000 0.000000 0.000000 1.578397 -1.576498 7.741943 -5.080772 0.524949 5.729636 -64.524094 -1.159869 29.143884 -33.079166 -88.821972 64.151206 0.000000 0.000000 0.000000 -2.476068 0.461168 6.902150 30.952805 10.240992 12.797075 39.050917 -7.073918 15.186780 -31.922972 80.056176 -34.931698 0.000000 0.000000 0.000000 
-14.593738 80.895721 37.827164 -179.885955 4.526909 -179.313025 -3.893808 -1.668208 11.669243 2.053169 1.172339 -25.145975 4.511547 1.904117 30.413374 -7.371962 -9.386968 -13.650198 0.000000 0.000000 0.000000 -0.465260 -1.764558 12.001266 -4.769553 -9.874588 -26.581040 -0.833378 6.711714 28.653955 14.453806 11.309611 -1.384793 0.000000 0.000000 0.000000 1.357633 0.777396 0.704025 1.547788 -0.562265 0.692617 0.240667 -2.777848 9.671535 -0.037635 0.050351 0.077695 0.062162 -2.058579 10.380318 0.529562 0.029190 -17.753397 0.000000 0.000000 0.000000 1.333100 -1.685340 7.693288 -5.171324 0.891484 5.464809 -65.006974 -0.489632 28.184204 -28.277804 -89.289205 59.801742 0.000000 0.000000 0.000000 -2.633665 0.401310 6.998853 30.913737 10.449867 12.914789 38.828007 -6.943193 14.986847 -31.820393 79.769684 -34.399152 0.000000 0.000000 0.000000 
-16.438406 80.853447 38.484085 179.991495 5.381276 -179.214929 -3.855765 -1.727333 11.687581 0.421933 1.176441 -25.282113 4.726017 2.110265 29.657962 -7.433760 -9.419271 -14.190861 0.000000 0.000000 0.000000 -0.447245 -1.713328 12.035974 -5.863590 -10.274425 -27.261016 -1.431343 7.406970 27.589108 15.946873 11.570135 0.481760 0.000000 0.000000 0.000000 1.401112 1.020934 1.085027 1.272809 -0.485338 0.697454 0.070326 -2.665054 9.592535 0.000527 -0.022382 0.053373 -0.027645 -1.993934 10.396276 0.223738 0.246954 -18.192830 0.000000 0.000000 0.000000 1.170920 -1.647943 7.836856 -5.492548 1.051912 5.245191 -65.367260 -0.143548 27.205122 10.619931 -89.652257 21.323507 0.000000 0.000000 0.000000 -2.794335 0.456964 7.098408 30.938261 10.518202 13.141143 38.925180 -6.614787 14.518390 -33.176046 79.602877 -35.456530 0.000000 0.000000 0.000000 
-18.147631 80.880096 39.190170 179.696581 6.412753 -179.164864 -4.076735 -1.741618 11.668588 -1.040111 1.439137 -25.500233 4.927815 2.441320 28.848397 -7.619225 -9.432293 -14.223398 0.000000 0.000000 0.000000 -0.481158 -1.571441 12.049388 -6.913190 -10.716493 -27.862261 -2.154234 7.659757 26.256236 17.090716 11.742410 2.255100 0.000000 0.000000 0.000000 1.319617 1.279935 1.508103 0.878579 -0.413763 0.727777 -0.145326 -2.729338 9.481659 0.004982 0.003876 0.128438 -0.078716 -1.909773 10.368866 -0.083303 0.436419 -18.648129 0.000000 0.000000 0.000000 1.105028 -1.652209 7.897013 -5.653487 1.154619 5.040504 -65.699146 0.153152 26.254641 66.948012 -89.505838 -34.672028 0.000000 0.000000 0.000000 -2.778344 0.505478 7.151102 30.941054 10.687068 13.352940 39.208943 -6.181521 13.881381 -34.156164 79.871672 -36.268065 0.000000 0.000000 0.000000 
-19.666775 80.957924 39.870533 179.843812 7.349413 -179.294064 -4.049236 -1.384219 11.660220 -2.349293 1.884799 -25.715181 5.275781 2.980955 28.038801 -7.537150 -9.005002 -13.262119 0.000000 0.000000 0.000000 -0.177847 -1.216566 11.872953 -7.375755 -10.927514 -28.563977 -2.636275 7.849961 24.981332 16.533359 11.442735 4.411899 0.000000 0.000000 0.000000 1.466043 1.275101 2.031659 0.648943 -0.454513 0.868336 -0.187214 -2.729459 9.437410 0.037312 -0.009299 0.101395 -0.266200 -1.965705 10.404168 -0.391365 0.629988 -19.102038 0.000000 0.000000 0.000000 0.974842 -1.595642 7.974025 -5.541191 1.118800 4.873386 -66.024065 0.407148 25.528582 78.269726 -89.164903 -45.745424 0.000000 0.000000 0.000000 -2.985456 0.506430 7.179400 31.011535 10.849225 13.540470 39.590918 -5.804086 13.533280 -35.734320 80.010755 -37.626911 0.000000 0.000000 0.000000 
-20.968994 81.055107 40.517258 -179.957139 8.179539 -179.643565 -4.062503 -1.409871 11.844213 -3.384005 2.451000 -25.801864 5.554931 3.659451 27.320613 -7.496145 -8.599661 -12.197725 0.000000 0.000000 0.000000 0.092400 -0.796851 11.484195 -7.391785 -11.027743 -29.337554 -2.585682 7.386109 23.815247 14.561197 9.728725 4.537238 0.000000 0.000000 0.000000 1.637926 1.193615 2.617316 0.403726 -0.533859 1.131622 -0.236053 -2.797774 9.399505 0.009842 -0.132238 0.059384 -0.361474 -1.920030 10.410303 -0.712650 0.802224 -19.519665 0.000000 0.000000 0.000000 0.993455 -1.515448 8.115504 -5.311902 1.034250 4.718819 -66.288598 0.645453 24.955710 81.224405 -88.826132 -48.547786 0.000000 0.000000 0.000000 -3.105745 0.558692 7.266051 30.975557 11.039082 13.681134 40.165798 -5.412084 13.128993 -37.427780 80.165486 -39.406633 0.000000 0.000000 0.000000 
-22.071409 81.184608 41.115948 -179.966155 9.339549 -179.913166 -4.265598 -1.409460 11.961681 -4.213561 3.130260 -25.992114 5.733152 4.240436 26.621496 -7.393691 -8.218319 -11.180910 0.000000 0.000000 0.000000 0.342347 -0.788019 11.189951 -6.964620 -11.518635 -29.771285 -2.403274 6.317032 23.152429 12.253366 7.638159 4.268029 0.000000 0.000000 0.000000 1.625090 1.193104 3.027356 0.066685 -0.622094 1.383890 -0.270066 -2.745666 9.342867 -0.049723 -0.050509 0.059200 -0.331766 -1.799526 10.343266 -1.002586 0.970743 -19.845439 0.000000 0.000000 0.000000 1.058336 -1.482753 8.069269 -4.839198 0.939791 4.678418 -66.483053 0.964869 24.634587 86.836088 -88.628548 -54.083787 0.000000 0.000000 0.000000 -3.065213 0.505393 7.249325 31.022139 11.195226 13.853988 40.497281 -5.120826 13.036815 -38.026272 80.086263 -40.011320 0.000000 0.000000 0.000000 
-22.990112 81.310722 41.655922 -179.951155 10.828853 -179.938328 -4.478126 -0.946262 11.909794 -4.788958 3.747113 -26.345283 5.825167 4.980316 26.048538 -7.204643 -7.974003 -10.260868 0.000000 0.000000 0.000000 0.534796 -1.060214 11.096275 -6.207874 -12.266271 -29.875702 -2.159759 4.043912 22.788979 11.469694 6.886310 2.528251 0.000000 0.000000 0.000000 1.550120 1.465647 3.210116 -0.266216 -0.626872 1.477957 -0.263221 -2.661107 9.270675 -0.009552 -0.050504 -0.008896 -0.402995 -1.757168 10.410007 -1.257481 1.138773 -20.070707 0.000000 0.000000 0.000000 0.989032 -1.403540 8.101414 -4.461704 0.850029 4.627146 -66.549156 1.303281 24.425735 84.649765 -88.373454 -51.881775 0.000000 0.000000 0.000000 -3.122329 0.652874 7.288410 31.075749 11.378243 13.962336 40.660000 -5.032452 13.185719 -38.037812 79.922427 -40.034341 0.000000 0.000000 0.000000 
-23.768841 81.400627 42.111664 -179.894069 11.806684 -179.967548 -4.612118 -0.646002 11.898095 -5.168059 4.039743 -26.639278 5.928894 5.663652 25.603738 -7.038618 -7.918331 -9.414368 0.000000 0.000000 0.000000 0.495366 -1.095540 11.294549 -5.631858 -12.753123 -29.483621 -1.746250 3.234074 24.053869 11.751437 7.639841 0.264490 0.000000 0.000000 0.000000 1.451854 1.510173 3.276980 -0.529404 -0.644848 1.555229 -0.235828 -2.579175 9.175207 0.018779 0.007581 0.025291 -0.464025 -1.740747 10.334869 -1.457712 1.314054 -20.239013 0.000000 0.000000 0.000000 0.941035 -1.403801 8.018503 -4.161227 0.824840 4.554181 -66.614937 1.631535 24.293173 85.724256 -88.238524 -53.048071 0.000000 0.000000 0.000000 -3.144922 0.660086 7.237014 31.097073 11.492963 14.053965 40.644267 -4.885730 13.787008 -37.687847 79.794771 -39.692941 0.000000 0.000000 0.000000 
-24.440950 81.448494 42.480713 -179.860587 12.451026 -179.960690 -4.782699 -0.524932 11.903925 -5.519503 4.115336 -27.044284 6.054578 6.081127 25.389270 -6.733366 -7.840209 -8.762118 0.000000 0.000000 0.000000 0.306589 -1.166260 11.496804 -5.413614 -12.574521 -28.921572 -1.374058 3.518856 26.182596 12.026612 8.271067 -0.803700 0.000000 0.000000 0.000000 1.358653 1.604752 3.274676 -0.730928 -0.775105 1.577806 -0.249103 -2.603501 9.077097 -0.036037 -0.034228 0.026863 -0.423277 -1.699992 10.312611 -1.594969 1.477654 -20.316090 0.000000 0.000000 0.000000 1.009313 -1.395478 7.977273 -4.007143 0.881337 4.507567 -66.698245 1.914765 24.388799 86.175588 -88.130723 -53.568610 0.000000 0.000000 0.000000 -3.089790 0.664092 7.208332 30.998786 11.695624 14.173604 40.600045 -4.732013 14.530324 -37.536141 79.699715 -39.500278 0.000000 0.000000 0.000000 
-25.000092 81.462296 42.760571 -179.820166 12.920255 -179.945527 -4.941341 -0.382467 11.954271 -5.826364 4.234091 -27.418717 6.155519 6.374796 25.258914 -6.366051 -7.775182 -8.274540 0.000000 0.000000 0.000000 0.138867 -1.087384 11.779460 -5.231900 -12.467894 -28.412284 -1.239660 3.610188 28.464479 11.688510 8.149117 -1.913492 0.000000 0.000000 0.000000 1.232135 1.622429 3.229838 -0.841608 -0.889455 1.550710 -0.191602 -2.603755 8.947409 -0.050129 -0.031534 0.034735 -0.391543 -1.690821 10.220465 -1.671651 1.662605 -20.337532 0.000000 0.000000 0.000000 1.002467 -1.374517 7.845749 -3.999945 1.031218 4.453062 -66.789831 2.127987 24.614771 87.603535 -88.033577 -55.133178 0.000000 0.000000 0.000000 -3.091915 0.669151 7.119341 30.816950 11.938604 14.211249 40.596568 -4.511416 15.313088 -37.627632 79.612910 -39.545224 0.000000 0.000000 0.000000 
-25.429436 81.451828 42.971245 -179.762055 13.089772 -179.818582 -5.064289 -0.346168 12.044437 -6.060854 4.307724 -27.885502 6.242430 6.480935 25.150520 -6.030716 -7.780646 -7.935284 0.000000 0.000000 0.000000 -0.050283 -1.140794 11.963731 -5.083149 -12.141757 -28.021242 -1.148699 3.658070 30.566357 11.404736 7.882773 -2.872385 0.000000 0.000000 0.000000 1.123319 1.560122 3.113239 -0.895259 -1.019941 1.438824 -0.151958 -2.628910 8.769369 -0.048635 -0.033549 0.031900 -0.412007 -1.728856 10.131527 -1.706013 1.825363 -20.340935 0.000000 0.000000 0.000000 1.000928 -1.354949 7.783246 -4.106983 1.207087 4.430841 -66.832342 2.283459 25.039870 90.145506 -88.031187 -57.835720 0.000000 0.000000 0.000000 -3.079081 0.612259 7.045668 30.483411 12.183714 14.197564 40.807836 -4.422424 15.889549 -37.553323 79.556274 -39.435579 0.000000 0.000000 0.000000 
